<mxfile host="app.diagrams.net" modified="2024-04-28T08:53:05.398Z" agent="Mozilla/5.0 (Windows NT 10.0; Win64; x64) AppleWebKit/537.36 (KHTML, like Gecko) Chrome/123.0.0.0 Safari/537.36" etag="t_48C4l4CIHN6_WFTw3B" version="24.3.1" type="github">
  <diagram id="R2lEEEUBdFMjLlhIrx00" name="Page-1">
    <mxGraphModel dx="1229" dy="530" grid="1" gridSize="10" guides="1" tooltips="1" connect="1" arrows="1" fold="1" page="1" pageScale="1" pageWidth="850" pageHeight="1100" math="0" shadow="0" extFonts="Permanent Marker^https://fonts.googleapis.com/css?family=Permanent+Marker">
      <root>
        <mxCell id="0" />
        <mxCell id="1" parent="0" />
        <mxCell id="QkJnz0_4Hoa12UKaAmLM-1" value="CarMaintenanceHistory" style="swimlane;fontStyle=0;align=center;verticalAlign=top;childLayout=stackLayout;horizontal=1;startSize=26;horizontalStack=0;resizeParent=1;resizeLast=0;collapsible=1;marginBottom=0;rounded=0;shadow=0;strokeWidth=1;fillColor=#dae8fc;strokeColor=#6c8ebf;gradientColor=#ffffff;labelBackgroundColor=#ffffff;fontSize=14;" vertex="1" parent="1">
          <mxGeometry x="570" y="260" width="160" height="160" as="geometry">
            <mxRectangle x="550" y="140" width="160" height="26" as="alternateBounds" />
          </mxGeometry>
        </mxCell>
        <mxCell id="QkJnz0_4Hoa12UKaAmLM-2" value="Id" style="text;align=center;verticalAlign=top;spacingLeft=4;spacingRight=4;overflow=hidden;rotatable=0;points=[[0,0.5],[1,0.5]];portConstraint=eastwest;fontStyle=5;fillColor=#FFFFFF;strokeColor=#6c8ebf;gradientColor=#ffffff;fontSize=14;" vertex="1" parent="QkJnz0_4Hoa12UKaAmLM-1">
          <mxGeometry y="26" width="160" height="26" as="geometry" />
        </mxCell>
        <mxCell id="QkJnz0_4Hoa12UKaAmLM-3" value="Date/Time" style="text;align=center;verticalAlign=top;spacingLeft=4;spacingRight=4;overflow=hidden;rotatable=0;points=[[0,0.5],[1,0.5]];portConstraint=eastwest;rounded=0;shadow=0;html=0;fillColor=#FFFFFF;strokeColor=#6c8ebf;gradientColor=#ffffff;fontSize=14;" vertex="1" parent="QkJnz0_4Hoa12UKaAmLM-1">
          <mxGeometry y="52" width="160" height="26" as="geometry" />
        </mxCell>
        <mxCell id="QkJnz0_4Hoa12UKaAmLM-4" value="Conditions" style="text;align=center;verticalAlign=top;spacingLeft=4;spacingRight=4;overflow=hidden;rotatable=0;points=[[0,0.5],[1,0.5]];portConstraint=eastwest;rounded=0;shadow=0;html=0;fillColor=#FFFFFF;strokeColor=#6c8ebf;gradientColor=#ffffff;fontSize=14;" vertex="1" parent="QkJnz0_4Hoa12UKaAmLM-1">
          <mxGeometry y="78" width="160" height="26" as="geometry" />
        </mxCell>
        <mxCell id="QkJnz0_4Hoa12UKaAmLM-5" value="Parts_Replaced" style="text;align=center;verticalAlign=top;spacingLeft=4;spacingRight=4;overflow=hidden;rotatable=0;points=[[0,0.5],[1,0.5]];portConstraint=eastwest;rounded=0;shadow=0;html=0;fillColor=#FFFFFF;strokeColor=#6c8ebf;gradientColor=#ffffff;fontSize=14;" vertex="1" parent="QkJnz0_4Hoa12UKaAmLM-1">
          <mxGeometry y="104" width="160" height="26" as="geometry" />
        </mxCell>
        <mxCell id="QkJnz0_4Hoa12UKaAmLM-6" value="Repairs" style="text;align=center;verticalAlign=top;spacingLeft=4;spacingRight=4;overflow=hidden;rotatable=0;points=[[0,0.5],[1,0.5]];portConstraint=eastwest;rounded=0;shadow=0;html=0;fillColor=#FFFFFF;strokeColor=#6c8ebf;gradientColor=#ffffff;fontSize=14;" vertex="1" parent="QkJnz0_4Hoa12UKaAmLM-1">
          <mxGeometry y="130" width="160" height="30" as="geometry" />
        </mxCell>
        <mxCell id="QkJnz0_4Hoa12UKaAmLM-7" value="CarsUnderMaintenance" style="swimlane;fontStyle=2;align=center;verticalAlign=top;childLayout=stackLayout;horizontal=1;startSize=26;horizontalStack=0;resizeParent=1;resizeLast=0;collapsible=1;marginBottom=0;rounded=0;shadow=0;strokeWidth=1;labelBackgroundColor=#ffffff;strokeColor=#6c8ebf;gradientDirection=north;fillColor=#FFFFFF;gradientColor=#ffffff;fontSize=14;" vertex="1" parent="1">
          <mxGeometry x="290" y="280" width="160" height="80" as="geometry">
            <mxRectangle x="70" y="-350" width="160" height="26" as="alternateBounds" />
          </mxGeometry>
        </mxCell>
        <mxCell id="QkJnz0_4Hoa12UKaAmLM-8" value="CarOwner" style="text;align=center;verticalAlign=top;spacingLeft=4;spacingRight=4;overflow=hidden;rotatable=0;points=[[0,0.5],[1,0.5]];portConstraint=eastwest;fontStyle=0;fillColor=#FFFFFF;strokeColor=#6c8ebf;gradientColor=#ffffff;fontSize=14;" vertex="1" parent="QkJnz0_4Hoa12UKaAmLM-7">
          <mxGeometry y="26" width="160" height="26" as="geometry" />
        </mxCell>
        <mxCell id="QkJnz0_4Hoa12UKaAmLM-9" value="History" style="text;align=center;verticalAlign=top;spacingLeft=4;spacingRight=4;overflow=hidden;rotatable=0;points=[[0,0.5],[1,0.5]];portConstraint=eastwest;rounded=0;shadow=0;html=0;fontStyle=5;fillColor=#FFFFFF;strokeColor=#6c8ebf;gradientColor=#ffffff;fontSize=14;" vertex="1" parent="QkJnz0_4Hoa12UKaAmLM-7">
          <mxGeometry y="52" width="160" height="28" as="geometry" />
        </mxCell>
        <mxCell id="QkJnz0_4Hoa12UKaAmLM-10" value="Â CarOwner" style="swimlane;fontStyle=2;align=center;verticalAlign=top;childLayout=stackLayout;horizontal=1;startSize=26;horizontalStack=0;resizeParent=1;resizeLast=0;collapsible=1;marginBottom=0;rounded=0;shadow=0;strokeWidth=1;fontSize=14;fillColor=#FFFFFF;strokeColor=#6c8ebf;gradientColor=#ffffff;labelBackgroundColor=#ffffff;" vertex="1" parent="1">
          <mxGeometry x="290" y="470" width="160" height="160" as="geometry">
            <mxRectangle x="230" y="140" width="160" height="26" as="alternateBounds" />
          </mxGeometry>
        </mxCell>
        <mxCell id="QkJnz0_4Hoa12UKaAmLM-11" value="Email" style="text;align=center;verticalAlign=top;spacingLeft=4;spacingRight=4;overflow=hidden;rotatable=0;points=[[0,0.5],[1,0.5]];portConstraint=eastwest;fontStyle=5;fillColor=#FFFFFF;strokeColor=#6c8ebf;gradientColor=#ffffff;fontSize=14;" vertex="1" parent="QkJnz0_4Hoa12UKaAmLM-10">
          <mxGeometry y="26" width="160" height="26" as="geometry" />
        </mxCell>
        <mxCell id="QkJnz0_4Hoa12UKaAmLM-12" value="Password" style="text;align=center;verticalAlign=top;spacingLeft=4;spacingRight=4;overflow=hidden;rotatable=0;points=[[0,0.5],[1,0.5]];portConstraint=eastwest;rounded=0;shadow=0;html=0;fillColor=#FFFFFF;strokeColor=#6c8ebf;gradientColor=#ffffff;fontSize=14;" vertex="1" parent="QkJnz0_4Hoa12UKaAmLM-10">
          <mxGeometry y="52" width="160" height="26" as="geometry" />
        </mxCell>
        <mxCell id="QkJnz0_4Hoa12UKaAmLM-13" value="Name" style="text;align=center;verticalAlign=top;spacingLeft=4;spacingRight=4;overflow=hidden;rotatable=0;points=[[0,0.5],[1,0.5]];portConstraint=eastwest;rounded=0;shadow=0;html=0;fillColor=#FFFFFF;strokeColor=#6c8ebf;gradientColor=#ffffff;fontSize=14;" vertex="1" parent="QkJnz0_4Hoa12UKaAmLM-10">
          <mxGeometry y="78" width="160" height="26" as="geometry" />
        </mxCell>
        <mxCell id="QkJnz0_4Hoa12UKaAmLM-14" value="Address" style="text;align=center;verticalAlign=top;spacingLeft=4;spacingRight=4;overflow=hidden;rotatable=0;points=[[0,0.5],[1,0.5]];portConstraint=eastwest;rounded=0;shadow=0;html=0;fillColor=#FFFFFF;strokeColor=#6c8ebf;gradientColor=#ffffff;fontSize=14;" vertex="1" parent="QkJnz0_4Hoa12UKaAmLM-10">
          <mxGeometry y="104" width="160" height="26" as="geometry" />
        </mxCell>
        <mxCell id="QkJnz0_4Hoa12UKaAmLM-15" value="Gender" style="text;align=center;verticalAlign=top;spacingLeft=4;spacingRight=4;overflow=hidden;rotatable=0;points=[[0,0.5],[1,0.5]];portConstraint=eastwest;rounded=0;shadow=0;html=0;fillColor=#FFFFFF;strokeColor=#6c8ebf;gradientColor=#ffffff;fontSize=14;" vertex="1" parent="QkJnz0_4Hoa12UKaAmLM-10">
          <mxGeometry y="130" width="160" height="30" as="geometry" />
        </mxCell>
        <mxCell id="QkJnz0_4Hoa12UKaAmLM-16" value="ServiceAppointment" style="swimlane;fontStyle=2;align=center;verticalAlign=top;childLayout=stackLayout;horizontal=1;startSize=26;horizontalStack=0;resizeParent=1;resizeLast=0;collapsible=1;marginBottom=0;rounded=0;shadow=0;strokeWidth=1;labelBackgroundColor=#ffffff;fillColor=#FFFFFF;strokeColor=#6c8ebf;gradientColor=#ffffff;fontSize=14;" vertex="1" parent="1">
          <mxGeometry x="540" y="800" width="160" height="170" as="geometry">
            <mxRectangle x="230" y="140" width="160" height="26" as="alternateBounds" />
          </mxGeometry>
        </mxCell>
        <mxCell id="QkJnz0_4Hoa12UKaAmLM-17" value="Id" style="text;align=center;verticalAlign=top;spacingLeft=4;spacingRight=4;overflow=hidden;rotatable=0;points=[[0,0.5],[1,0.5]];portConstraint=eastwest;fontStyle=5;fillColor=#FFFFFF;strokeColor=#6c8ebf;gradientColor=#ffffff;fontSize=14;" vertex="1" parent="QkJnz0_4Hoa12UKaAmLM-16">
          <mxGeometry y="26" width="160" height="26" as="geometry" />
        </mxCell>
        <mxCell id="QkJnz0_4Hoa12UKaAmLM-18" value="Date" style="text;align=center;verticalAlign=top;spacingLeft=4;spacingRight=4;overflow=hidden;rotatable=0;points=[[0,0.5],[1,0.5]];portConstraint=eastwest;rounded=0;shadow=0;html=0;fillColor=#FFFFFF;strokeColor=#6c8ebf;gradientColor=#ffffff;fontSize=14;" vertex="1" parent="QkJnz0_4Hoa12UKaAmLM-16">
          <mxGeometry y="52" width="160" height="26" as="geometry" />
        </mxCell>
        <mxCell id="QkJnz0_4Hoa12UKaAmLM-19" value="Start Time" style="text;align=center;verticalAlign=top;spacingLeft=4;spacingRight=4;overflow=hidden;rotatable=0;points=[[0,0.5],[1,0.5]];portConstraint=eastwest;rounded=0;shadow=0;html=0;fillColor=#FFFFFF;strokeColor=#6c8ebf;gradientColor=#ffffff;fontSize=14;" vertex="1" parent="QkJnz0_4Hoa12UKaAmLM-16">
          <mxGeometry y="78" width="160" height="26" as="geometry" />
        </mxCell>
        <mxCell id="QkJnz0_4Hoa12UKaAmLM-20" value="End Time" style="text;align=center;verticalAlign=top;spacingLeft=4;spacingRight=4;overflow=hidden;rotatable=0;points=[[0,0.5],[1,0.5]];portConstraint=eastwest;rounded=0;shadow=0;html=0;fillColor=#FFFFFF;strokeColor=#6c8ebf;gradientColor=#ffffff;fontSize=14;" vertex="1" parent="QkJnz0_4Hoa12UKaAmLM-16">
          <mxGeometry y="104" width="160" height="26" as="geometry" />
        </mxCell>
        <mxCell id="QkJnz0_4Hoa12UKaAmLM-21" value="Status" style="text;align=center;verticalAlign=top;spacingLeft=4;spacingRight=4;overflow=hidden;rotatable=0;points=[[0,0.5],[1,0.5]];portConstraint=eastwest;rounded=0;shadow=0;html=0;fillColor=#FFFFFF;strokeColor=#6c8ebf;gradientColor=#ffffff;fontSize=14;" vertex="1" parent="QkJnz0_4Hoa12UKaAmLM-16">
          <mxGeometry y="130" width="160" height="40" as="geometry" />
        </mxCell>
        <mxCell id="QkJnz0_4Hoa12UKaAmLM-22" value="CarsInService" style="swimlane;fontStyle=2;align=center;verticalAlign=top;childLayout=stackLayout;horizontal=1;startSize=26;horizontalStack=0;resizeParent=1;resizeLast=0;collapsible=1;marginBottom=0;rounded=0;shadow=0;strokeWidth=1;labelBackgroundColor=#ffffff;fillColor=#FFFFFF;strokeColor=#6c8ebf;gradientColor=#ffffff;fontSize=13;" vertex="1" parent="1">
          <mxGeometry x="280" y="750" width="170" height="140" as="geometry">
            <mxRectangle x="280" y="750" width="160" height="26" as="alternateBounds" />
          </mxGeometry>
        </mxCell>
        <mxCell id="QkJnz0_4Hoa12UKaAmLM-23" value="CarOwner" style="text;align=center;verticalAlign=top;spacingLeft=4;spacingRight=4;overflow=hidden;rotatable=0;points=[[0,0.5],[1,0.5]];portConstraint=eastwest;fontStyle=5;fillColor=#FFFFFF;strokeColor=#6c8ebf;gradientColor=#ffffff;fontSize=14;" vertex="1" parent="QkJnz0_4Hoa12UKaAmLM-22">
          <mxGeometry y="26" width="170" height="26" as="geometry" />
        </mxCell>
        <mxCell id="QkJnz0_4Hoa12UKaAmLM-24" value="Appt_id" style="text;align=center;verticalAlign=top;spacingLeft=4;spacingRight=4;overflow=hidden;rotatable=0;points=[[0,0.5],[1,0.5]];portConstraint=eastwest;rounded=0;shadow=0;html=0;fontStyle=5;fillColor=#FFFFFF;strokeColor=#6c8ebf;gradientColor=#ffffff;fontSize=14;" vertex="1" parent="QkJnz0_4Hoa12UKaAmLM-22">
          <mxGeometry y="52" width="170" height="26" as="geometry" />
        </mxCell>
        <mxCell id="QkJnz0_4Hoa12UKaAmLM-25" value="Concerns" style="text;align=center;verticalAlign=top;spacingLeft=4;spacingRight=4;overflow=hidden;rotatable=0;points=[[0,0.5],[1,0.5]];portConstraint=eastwest;rounded=0;shadow=0;html=0;fillColor=#FFFFFF;strokeColor=#6c8ebf;gradientColor=#ffffff;fontSize=14;" vertex="1" parent="QkJnz0_4Hoa12UKaAmLM-22">
          <mxGeometry y="78" width="170" height="26" as="geometry" />
        </mxCell>
        <mxCell id="QkJnz0_4Hoa12UKaAmLM-26" value="Signs" style="text;align=center;verticalAlign=top;spacingLeft=4;spacingRight=4;overflow=hidden;rotatable=0;points=[[0,0.5],[1,0.5]];portConstraint=eastwest;rounded=0;shadow=0;html=0;fillColor=#FFFFFF;strokeColor=#6c8ebf;gradientColor=#ffffff;fontSize=14;" vertex="1" parent="QkJnz0_4Hoa12UKaAmLM-22">
          <mxGeometry y="104" width="170" height="36" as="geometry" />
        </mxCell>
        <mxCell id="QkJnz0_4Hoa12UKaAmLM-27" style="edgeStyle=orthogonalEdgeStyle;rounded=0;orthogonalLoop=1;jettySize=auto;html=1;exitX=0;exitY=0.5;exitDx=0;exitDy=0;entryX=0;entryY=0.5;entryDx=0;entryDy=0;fontSize=14;align=center;fillColor=#FFFFFF;" edge="1" parent="1" source="QkJnz0_4Hoa12UKaAmLM-23" target="QkJnz0_4Hoa12UKaAmLM-11">
          <mxGeometry relative="1" as="geometry" />
        </mxCell>
        <mxCell id="QkJnz0_4Hoa12UKaAmLM-28" style="edgeStyle=orthogonalEdgeStyle;rounded=0;orthogonalLoop=1;jettySize=auto;html=1;exitX=1;exitY=0.5;exitDx=0;exitDy=0;entryX=0;entryY=0.5;entryDx=0;entryDy=0;fontSize=14;align=center;fillColor=#FFFFFF;" edge="1" parent="1" source="QkJnz0_4Hoa12UKaAmLM-24" target="QkJnz0_4Hoa12UKaAmLM-17">
          <mxGeometry relative="1" as="geometry" />
        </mxCell>
        <mxCell id="QkJnz0_4Hoa12UKaAmLM-29" style="edgeStyle=orthogonalEdgeStyle;rounded=0;orthogonalLoop=1;jettySize=auto;html=1;exitX=0;exitY=0.5;exitDx=0;exitDy=0;entryX=0;entryY=0.5;entryDx=0;entryDy=0;fontSize=14;align=center;fillColor=#FFFFFF;" edge="1" parent="1" source="QkJnz0_4Hoa12UKaAmLM-8" target="QkJnz0_4Hoa12UKaAmLM-11">
          <mxGeometry relative="1" as="geometry" />
        </mxCell>
        <mxCell id="QkJnz0_4Hoa12UKaAmLM-30" style="edgeStyle=orthogonalEdgeStyle;rounded=0;orthogonalLoop=1;jettySize=auto;html=1;exitX=1;exitY=0.5;exitDx=0;exitDy=0;entryX=0;entryY=0.5;entryDx=0;entryDy=0;fontSize=14;align=center;fillColor=#FFFFFF;" edge="1" parent="1" source="QkJnz0_4Hoa12UKaAmLM-9" target="QkJnz0_4Hoa12UKaAmLM-2">
          <mxGeometry relative="1" as="geometry" />
        </mxCell>
        <mxCell id="QkJnz0_4Hoa12UKaAmLM-31" style="edgeStyle=orthogonalEdgeStyle;rounded=0;orthogonalLoop=1;jettySize=auto;html=1;exitX=1;exitY=0.5;exitDx=0;exitDy=0;entryX=0;entryY=0.5;entryDx=0;entryDy=0;fontSize=14;align=center;fillColor=#FFFFFF;" edge="1" parent="1" source="QkJnz0_4Hoa12UKaAmLM-44" target="QkJnz0_4Hoa12UKaAmLM-36">
          <mxGeometry relative="1" as="geometry" />
        </mxCell>
        <mxCell id="QkJnz0_4Hoa12UKaAmLM-32" style="edgeStyle=orthogonalEdgeStyle;rounded=0;orthogonalLoop=1;jettySize=auto;html=1;exitX=1;exitY=0.5;exitDx=0;exitDy=0;entryX=1;entryY=0.5;entryDx=0;entryDy=0;fontSize=14;align=center;fillColor=#FFFFFF;" edge="1" parent="1" source="QkJnz0_4Hoa12UKaAmLM-58" target="QkJnz0_4Hoa12UKaAmLM-36">
          <mxGeometry relative="1" as="geometry" />
        </mxCell>
        <mxCell id="QkJnz0_4Hoa12UKaAmLM-33" style="edgeStyle=orthogonalEdgeStyle;rounded=0;orthogonalLoop=1;jettySize=auto;html=1;exitX=0;exitY=0.5;exitDx=0;exitDy=0;entryX=1;entryY=0.5;entryDx=0;entryDy=0;fontSize=14;align=center;fillColor=#FFFFFF;" edge="1" parent="1" source="QkJnz0_4Hoa12UKaAmLM-48" target="QkJnz0_4Hoa12UKaAmLM-2">
          <mxGeometry relative="1" as="geometry" />
        </mxCell>
        <mxCell id="QkJnz0_4Hoa12UKaAmLM-34" style="edgeStyle=orthogonalEdgeStyle;rounded=0;orthogonalLoop=1;jettySize=auto;html=1;exitX=1;exitY=0.5;exitDx=0;exitDy=0;entryX=0;entryY=0.5;entryDx=0;entryDy=0;fontSize=14;align=center;fillColor=#FFFFFF;" edge="1" parent="1" source="QkJnz0_4Hoa12UKaAmLM-49" target="QkJnz0_4Hoa12UKaAmLM-36">
          <mxGeometry relative="1" as="geometry" />
        </mxCell>
        <mxCell id="QkJnz0_4Hoa12UKaAmLM-35" value="Mechanic" style="swimlane;fontStyle=2;align=center;verticalAlign=top;childLayout=stackLayout;horizontal=1;startSize=26;horizontalStack=0;resizeParent=1;resizeLast=0;collapsible=1;marginBottom=0;rounded=0;shadow=0;strokeWidth=1;labelBackgroundColor=#ffffff;fillColor=#FFFFFF;strokeColor=#6c8ebf;gradientColor=#ffffff;fontSize=14;" vertex="1" parent="1">
          <mxGeometry x="1140" y="410" width="160" height="130" as="geometry">
            <mxRectangle x="230" y="140" width="160" height="26" as="alternateBounds" />
          </mxGeometry>
        </mxCell>
        <mxCell id="QkJnz0_4Hoa12UKaAmLM-36" value="Email" style="text;align=center;verticalAlign=top;spacingLeft=4;spacingRight=4;overflow=hidden;rotatable=0;points=[[0,0.5],[1,0.5]];portConstraint=eastwest;fontStyle=5;fillColor=#FFFFFF;strokeColor=#6c8ebf;gradientColor=#ffffff;fontSize=14;" vertex="1" parent="QkJnz0_4Hoa12UKaAmLM-35">
          <mxGeometry y="26" width="160" height="26" as="geometry" />
        </mxCell>
        <mxCell id="QkJnz0_4Hoa12UKaAmLM-37" value="Gender" style="text;align=center;verticalAlign=top;spacingLeft=4;spacingRight=4;overflow=hidden;rotatable=0;points=[[0,0.5],[1,0.5]];portConstraint=eastwest;rounded=0;shadow=0;html=0;fillColor=#FFFFFF;strokeColor=#6c8ebf;gradientColor=#ffffff;fontSize=14;" vertex="1" parent="QkJnz0_4Hoa12UKaAmLM-35">
          <mxGeometry y="52" width="160" height="26" as="geometry" />
        </mxCell>
        <mxCell id="QkJnz0_4Hoa12UKaAmLM-38" value="Password" style="text;align=center;verticalAlign=top;spacingLeft=4;spacingRight=4;overflow=hidden;rotatable=0;points=[[0,0.5],[1,0.5]];portConstraint=eastwest;rounded=0;shadow=0;html=0;fillColor=#FFFFFF;strokeColor=#6c8ebf;gradientColor=#ffffff;fontSize=14;" vertex="1" parent="QkJnz0_4Hoa12UKaAmLM-35">
          <mxGeometry y="78" width="160" height="26" as="geometry" />
        </mxCell>
        <mxCell id="QkJnz0_4Hoa12UKaAmLM-39" value="Name" style="text;align=center;verticalAlign=top;spacingLeft=4;spacingRight=4;overflow=hidden;rotatable=0;points=[[0,0.5],[1,0.5]];portConstraint=eastwest;rounded=0;shadow=0;html=0;fillColor=#FFFFFF;strokeColor=#6c8ebf;gradientColor=#ffffff;fontSize=14;" vertex="1" parent="QkJnz0_4Hoa12UKaAmLM-35">
          <mxGeometry y="104" width="160" height="26" as="geometry" />
        </mxCell>
        <mxCell id="QkJnz0_4Hoa12UKaAmLM-40" style="edgeStyle=orthogonalEdgeStyle;rounded=0;orthogonalLoop=1;jettySize=auto;html=1;exitX=0;exitY=0.5;exitDx=0;exitDy=0;entryX=1;entryY=0.5;entryDx=0;entryDy=0;fillColor=#FFFFFF;" edge="1" parent="1" source="QkJnz0_4Hoa12UKaAmLM-56" target="QkJnz0_4Hoa12UKaAmLM-51">
          <mxGeometry relative="1" as="geometry" />
        </mxCell>
        <mxCell id="QkJnz0_4Hoa12UKaAmLM-41" style="edgeStyle=orthogonalEdgeStyle;rounded=0;orthogonalLoop=1;jettySize=auto;html=1;exitX=0;exitY=0.5;exitDx=0;exitDy=0;entryX=1;entryY=0.5;entryDx=0;entryDy=0;fontSize=14;align=center;fillColor=#FFFFFF;" edge="1" parent="1" source="QkJnz0_4Hoa12UKaAmLM-43" target="QkJnz0_4Hoa12UKaAmLM-17">
          <mxGeometry relative="1" as="geometry" />
        </mxCell>
        <mxCell id="QkJnz0_4Hoa12UKaAmLM-42" value="MaintenanceAssignment" style="swimlane;fontStyle=2;align=center;verticalAlign=top;childLayout=stackLayout;horizontal=1;startSize=26;horizontalStack=0;resizeParent=1;resizeLast=0;collapsible=1;marginBottom=0;rounded=0;shadow=0;strokeWidth=1;labelBackgroundColor=#ffffff;fillColor=#FFFFFF;strokeColor=#6c8ebf;gradientColor=#ffffff;fontSize=14;" vertex="1" parent="1">
          <mxGeometry x="870" y="530" width="160" height="130" as="geometry">
            <mxRectangle x="230" y="140" width="160" height="26" as="alternateBounds" />
          </mxGeometry>
        </mxCell>
        <mxCell id="QkJnz0_4Hoa12UKaAmLM-43" value="Schedule_id" style="text;align=center;verticalAlign=top;spacingLeft=4;spacingRight=4;overflow=hidden;rotatable=0;points=[[0,0.5],[1,0.5]];portConstraint=eastwest;fontStyle=5;fillColor=#FFFFFF;strokeColor=#6c8ebf;gradientColor=#ffffff;fontSize=14;" vertex="1" parent="QkJnz0_4Hoa12UKaAmLM-42">
          <mxGeometry y="26" width="160" height="26" as="geometry" />
        </mxCell>
        <mxCell id="QkJnz0_4Hoa12UKaAmLM-44" value="Mechanic_Email" style="text;align=center;verticalAlign=top;spacingLeft=4;spacingRight=4;overflow=hidden;rotatable=0;points=[[0,0.5],[1,0.5]];portConstraint=eastwest;rounded=0;shadow=0;html=0;fontStyle=5;fillColor=#FFFFFF;strokeColor=#6c8ebf;gradientColor=#ffffff;fontSize=14;" vertex="1" parent="QkJnz0_4Hoa12UKaAmLM-42">
          <mxGeometry y="52" width="160" height="26" as="geometry" />
        </mxCell>
        <mxCell id="QkJnz0_4Hoa12UKaAmLM-45" value="Diagnosis" style="text;align=center;verticalAlign=top;spacingLeft=4;spacingRight=4;overflow=hidden;rotatable=0;points=[[0,0.5],[1,0.5]];portConstraint=eastwest;rounded=0;shadow=0;html=0;fillColor=#FFFFFF;strokeColor=#6c8ebf;gradientColor=#ffffff;fontSize=14;" vertex="1" parent="QkJnz0_4Hoa12UKaAmLM-42">
          <mxGeometry y="78" width="160" height="26" as="geometry" />
        </mxCell>
        <mxCell id="QkJnz0_4Hoa12UKaAmLM-46" value="Parts_needed" style="text;align=center;verticalAlign=top;spacingLeft=4;spacingRight=4;overflow=hidden;rotatable=0;points=[[0,0.5],[1,0.5]];portConstraint=eastwest;rounded=0;shadow=0;html=0;fillColor=#FFFFFF;strokeColor=#6c8ebf;gradientColor=#ffffff;fontSize=14;" vertex="1" parent="QkJnz0_4Hoa12UKaAmLM-42">
          <mxGeometry y="104" width="160" height="26" as="geometry" />
        </mxCell>
        <mxCell id="QkJnz0_4Hoa12UKaAmLM-47" value="MechanicViewMaintenanceHistory" style="swimlane;fontStyle=2;align=center;verticalAlign=top;childLayout=stackLayout;horizontal=1;startSize=26;horizontalStack=0;resizeParent=1;resizeLast=0;collapsible=1;marginBottom=0;rounded=0;shadow=0;strokeWidth=1;fillColor=#dae8fc;strokeColor=#6c8ebf;labelBackgroundColor=#ffffff;gradientColor=#ffffff;fontSize=14;" vertex="1" parent="1">
          <mxGeometry x="850" y="260" width="250" height="80" as="geometry">
            <mxRectangle x="230" y="140" width="160" height="26" as="alternateBounds" />
          </mxGeometry>
        </mxCell>
        <mxCell id="QkJnz0_4Hoa12UKaAmLM-48" value="maintenance_idÂ " style="text;align=center;verticalAlign=top;spacingLeft=4;spacingRight=4;overflow=hidden;rotatable=0;points=[[0,0.5],[1,0.5]];portConstraint=eastwest;fontStyle=5;fillColor=#FFFFFF;strokeColor=#6c8ebf;gradientColor=#ffffff;fontSize=14;" vertex="1" parent="QkJnz0_4Hoa12UKaAmLM-47">
          <mxGeometry y="26" width="250" height="26" as="geometry" />
        </mxCell>
        <mxCell id="QkJnz0_4Hoa12UKaAmLM-49" value="mechanic_email" style="text;align=center;verticalAlign=top;spacingLeft=4;spacingRight=4;overflow=hidden;rotatable=0;points=[[0,0.5],[1,0.5]];portConstraint=eastwest;rounded=0;shadow=0;html=0;fontStyle=5;fillColor=#FFFFFF;strokeColor=#6c8ebf;gradientColor=#ffffff;fontSize=14;" vertex="1" parent="QkJnz0_4Hoa12UKaAmLM-47">
          <mxGeometry y="52" width="250" height="28" as="geometry" />
        </mxCell>
        <mxCell id="QkJnz0_4Hoa12UKaAmLM-50" value="ServiceSchedule" style="swimlane;fontStyle=2;align=center;verticalAlign=top;childLayout=stackLayout;horizontal=1;startSize=26;horizontalStack=0;resizeParent=1;resizeLast=0;collapsible=1;marginBottom=0;rounded=0;shadow=0;strokeWidth=1;labelBackgroundColor=#ffffff;fillColor=#FFFFFF;strokeColor=#6c8ebf;gradientColor=#ffffff;fontSize=14;" vertex="1" parent="1">
          <mxGeometry x="870" y="700" width="160" height="160" as="geometry">
            <mxRectangle x="230" y="140" width="160" height="26" as="alternateBounds" />
          </mxGeometry>
        </mxCell>
        <mxCell id="QkJnz0_4Hoa12UKaAmLM-51" value="Id" style="text;align=center;verticalAlign=top;spacingLeft=4;spacingRight=4;overflow=hidden;rotatable=0;points=[[0,0.5],[1,0.5]];portConstraint=eastwest;fontStyle=5;fillColor=#FFFFFF;strokeColor=#6c8ebf;gradientColor=#ffffff;fontSize=14;" vertex="1" parent="QkJnz0_4Hoa12UKaAmLM-50">
          <mxGeometry y="26" width="160" height="26" as="geometry" />
        </mxCell>
        <mxCell id="QkJnz0_4Hoa12UKaAmLM-52" value="Start Time" style="text;align=center;verticalAlign=top;spacingLeft=4;spacingRight=4;overflow=hidden;rotatable=0;points=[[0,0.5],[1,0.5]];portConstraint=eastwest;rounded=0;shadow=0;html=0;fillColor=#FFFFFF;strokeColor=#6c8ebf;gradientColor=#ffffff;fontSize=14;fontStyle=5" vertex="1" parent="QkJnz0_4Hoa12UKaAmLM-50">
          <mxGeometry y="52" width="160" height="26" as="geometry" />
        </mxCell>
        <mxCell id="QkJnz0_4Hoa12UKaAmLM-53" value="End Time" style="text;align=center;verticalAlign=top;spacingLeft=4;spacingRight=4;overflow=hidden;rotatable=0;points=[[0,0.5],[1,0.5]];portConstraint=eastwest;rounded=0;shadow=0;html=0;fillColor=#FFFFFF;strokeColor=#6c8ebf;gradientColor=#ffffff;fontSize=14;fontStyle=5" vertex="1" parent="QkJnz0_4Hoa12UKaAmLM-50">
          <mxGeometry y="78" width="160" height="26" as="geometry" />
        </mxCell>
        <mxCell id="QkJnz0_4Hoa12UKaAmLM-54" value="Break Time" style="text;align=center;verticalAlign=top;spacingLeft=4;spacingRight=4;overflow=hidden;rotatable=0;points=[[0,0.5],[1,0.5]];portConstraint=eastwest;rounded=0;shadow=0;html=0;fillColor=#FFFFFF;strokeColor=#6c8ebf;gradientColor=#ffffff;fontSize=14;fontStyle=5" vertex="1" parent="QkJnz0_4Hoa12UKaAmLM-50">
          <mxGeometry y="104" width="160" height="26" as="geometry" />
        </mxCell>
        <mxCell id="QkJnz0_4Hoa12UKaAmLM-55" value="Day" style="text;align=center;verticalAlign=top;spacingLeft=4;spacingRight=4;overflow=hidden;rotatable=0;points=[[0,0.5],[1,0.5]];portConstraint=eastwest;rounded=0;shadow=0;html=0;fillColor=#FFFFFF;strokeColor=#6c8ebf;gradientColor=#ffffff;fontSize=14;fontStyle=5" vertex="1" parent="QkJnz0_4Hoa12UKaAmLM-50">
          <mxGeometry y="130" width="160" height="30" as="geometry" />
        </mxCell>
        <mxCell id="QkJnz0_4Hoa12UKaAmLM-56" value="Â MechanicsAvailability" style="swimlane;fontStyle=2;align=center;verticalAlign=top;childLayout=stackLayout;horizontal=1;startSize=26;horizontalStack=0;resizeParent=1;resizeLast=0;collapsible=1;marginBottom=0;rounded=0;shadow=0;strokeWidth=1;labelBackgroundColor=#ffffff;fillColor=#FFFFFF;strokeColor=#6c8ebf;gradientColor=#ffffff;fontSize=14;" vertex="1" parent="1">
          <mxGeometry x="1160" y="710" width="160" height="80" as="geometry">
            <mxRectangle x="230" y="140" width="160" height="26" as="alternateBounds" />
          </mxGeometry>
        </mxCell>
        <mxCell id="QkJnz0_4Hoa12UKaAmLM-57" value="Schedule_id" style="text;align=center;verticalAlign=top;spacingLeft=4;spacingRight=4;overflow=hidden;rotatable=0;points=[[0,0.5],[1,0.5]];portConstraint=eastwest;fontStyle=5;fillColor=#FFFFFF;strokeColor=#6c8ebf;gradientColor=#ffffff;fontSize=14;" vertex="1" parent="QkJnz0_4Hoa12UKaAmLM-56">
          <mxGeometry y="26" width="160" height="26" as="geometry" />
        </mxCell>
        <mxCell id="QkJnz0_4Hoa12UKaAmLM-58" value="Mechanic_email" style="text;align=center;verticalAlign=top;spacingLeft=4;spacingRight=4;overflow=hidden;rotatable=0;points=[[0,0.5],[1,0.5]];portConstraint=eastwest;rounded=0;shadow=0;html=0;fontStyle=5;fillColor=#FFFFFF;strokeColor=#6c8ebf;gradientColor=#ffffff;fontSize=14;" vertex="1" parent="QkJnz0_4Hoa12UKaAmLM-56">
          <mxGeometry y="52" width="160" height="26" as="geometry" />
        </mxCell>
      </root>
    </mxGraphModel>
  </diagram>
</mxfile>
